<svg xmlns="http://www.w3.org/2000/svg" viewBox="0 0 25 25"><g data-name="Layer 6"><path d="M12.89,23h-.78a1.27,1.27,0,0,1-1.24-1l-.56-2.23a.31.31,0,0,0-.2-.2,7,7,0,0,1-.95-.39.26.26,0,0,0-.27,0l-2,1.18a1.27,1.27,0,0,1-1.57-.19l-.55-.55a1.27,1.27,0,0,1-.19-1.57l1.18-2a.28.28,0,0,0,0-.28,7.14,7.14,0,0,1-.39-.94.31.31,0,0,0-.2-.2L3,14.13a1.27,1.27,0,0,1-1-1.24v-.78a1.27,1.27,0,0,1,1-1.24l2.23-.56a.31.31,0,0,0,.2-.2,7.14,7.14,0,0,1,.39-.94.28.28,0,0,0,0-.28l-1.18-2A1.27,1.27,0,0,1,4.8,5.35l.55-.55a1.27,1.27,0,0,1,1.57-.19l2,1.18a.28.28,0,0,0,.28,0,6.42,6.42,0,0,1,.94-.39.31.31,0,0,0,.2-.2L10.87,3a1.27,1.27,0,0,1,1.24-1h.78a1.27,1.27,0,0,1,1.24,1l.56,2.23a.31.31,0,0,0,.2.2,6.42,6.42,0,0,1,.94.39.28.28,0,0,0,.28,0l2-1.18a1.27,1.27,0,0,1,1.57.19l.55.55a1.27,1.27,0,0,1,.19,1.57l-1.18,2a.28.28,0,0,0,0,.28,7.14,7.14,0,0,1,.39.94.31.31,0,0,0,.2.2l2.23.56a1.27,1.27,0,0,1,1,1.24v.78a1.27,1.27,0,0,1-1,1.24l-2.23.56a.31.31,0,0,0-.2.2,7.14,7.14,0,0,1-.39.94.28.28,0,0,0,0,.28l1.18,2a1.27,1.27,0,0,1-.19,1.57l-.55.55a1.27,1.27,0,0,1-1.57.19l-2-1.18a.28.28,0,0,0-.28,0,6.42,6.42,0,0,1-.94.39.31.31,0,0,0-.2.2L14.13,22A1.27,1.27,0,0,1,12.89,23ZM9,18.18a1.25,1.25,0,0,1,.59.14,5.85,5.85,0,0,0,.82.33,1.3,1.3,0,0,1,.85.91l.56,2.23a.28.28,0,0,0,.27.21h.78a.28.28,0,0,0,.27-.21l.56-2.23a1.3,1.3,0,0,1,.85-.91,5.85,5.85,0,0,0,.82-.33,1.3,1.3,0,0,1,1.24,0l2,1.19a.29.29,0,0,0,.34-.05l.55-.55a.29.29,0,0,0,.05-.34l-1.19-2a1.3,1.3,0,0,1,0-1.24,5.85,5.85,0,0,0,.33-.82,1.3,1.3,0,0,1,.91-.85l2.23-.56a.28.28,0,0,0,.21-.27v-.78a.28.28,0,0,0-.21-.27l-2.23-.56a1.3,1.3,0,0,1-.91-.85,5.85,5.85,0,0,0-.33-.82,1.3,1.3,0,0,1,0-1.24l1.19-2a.29.29,0,0,0-.05-.34l-.55-.55a.29.29,0,0,0-.34,0l-2,1.19a1.3,1.3,0,0,1-1.24,0,5.85,5.85,0,0,0-.82-.33,1.31,1.31,0,0,1-.85-.91l-.56-2.23A.28.28,0,0,0,12.89,3h-.78a.28.28,0,0,0-.27.21l-.56,2.23a1.31,1.31,0,0,1-.85.91,5.85,5.85,0,0,0-.82.33,1.3,1.3,0,0,1-1.24,0l-2-1.19a.29.29,0,0,0-.34,0l-.55.55a.29.29,0,0,0,0,.34l1.19,2a1.3,1.3,0,0,1,0,1.24,5.85,5.85,0,0,0-.33.82,1.3,1.3,0,0,1-.91.85l-2.23.56a.28.28,0,0,0-.21.27v.78a.28.28,0,0,0,.21.27l2.23.56a1.3,1.3,0,0,1,.91.85,5.85,5.85,0,0,0,.33.82,1.3,1.3,0,0,1,0,1.24l-1.19,2a.29.29,0,0,0,0,.34l.55.55a.29.29,0,0,0,.34.05l2-1.19A1.34,1.34,0,0,1,9,18.18Z"/><path d="M12.5,16A3.5,3.5,0,1,1,16,12.5,3.5,3.5,0,0,1,12.5,16Zm0-6A2.5,2.5,0,1,0,15,12.5,2.5,2.5,0,0,0,12.5,10Z"/></g></svg>