<svg xmlns="http://www.w3.org/2000/svg" data-name="Layer 1" viewBox="0 0 512 512"><path d="M489.5,74.49043H392.78223V22.51A22.49952,22.49952,0,0,0,363.7373.98262L282.08789,25.80928a38.91741,38.91741,0,0,0-52.17578,0L148.2627.98262A22.49952,22.49952,0,0,0,119.21777,22.51V74.49043H22.5a22.52586,22.52586,0,0,0-22.5,22.5v45.50976a22.52961,22.52961,0,0,0,19.5,22.29395V474.50019a37.54226,37.54226,0,0,0,37.5,37.5H455a37.54226,37.54226,0,0,0,37.5-37.5v-309.706A22.52961,22.52961,0,0,0,512,142.50019V96.99043A22.52586,22.52586,0,0,0,489.5,74.49043Zm-196.18164,34.6582a7.50009,7.50009,0,1,0,4.36328-14.35156l-6.19336-1.8833A38.7582,38.7582,0,0,0,295,76.77168v-3.501h32.252a7.5,7.5,0,0,0,0-15H295v-3.5a38.75562,38.75562,0,0,0-3.51123-16.1416l76.61182-23.29492A7.50022,7.50022,0,0,1,377.78223,22.51V80.78584a6.93164,6.93164,0,0,0,0,2.40918v25.8374a7.50022,7.50022,0,0,1-9.68164,7.17578l-44.40821-13.50342a7.46236,7.46236,0,0,0-.73242-.18213c-.07275-.01464-.145-.021-.21728-.0332-.16895-.02832-.33789-.05664-.5083-.07324-.10206-.00977-.20313-.01074-.30518-.0166-.14307-.0083-.28565-.01856-.42871-.01856-.09912,0-.19678.0083-.29541.01221-.147.00586-.29346.01025-.44043.02441-.08447.00879-.168.02393-.252.03516-.15918.02148-.31885.04248-.47754.07422-.0669.01318-.13184.03271-.19873.04785-.17139.03906-.34278.07959-.51221.13135-.05567.0166-.10889.03906-.16406.05713-.17481.05761-.34864.1167-.52051.188-.06348.02636-.12354.05908-.186.08691-.15771.07031-.31494.13965-.46875.22217q-.32373.17211-.62939.37451l-.00293.00195c-.02051.01367-.03858.02979-.05908.04395-.18506.12549-.36524.25732-.53858.39941-.06738.05518-.12842.11572-.19336.17285-.12011.105-.24023.209-.35351.32178-.07666.07617-.14551.15772-.21778.23682-.09326.10107-.188.1997-.27539.30664-.07422.09033-.14062.18554-.21045.27881-.07666.103-.15576.20361-.22753.31054-.06983.104-.13038.21289-.19483.31983-.06152.10254-.126.20263-.18262.30859-.06933.12988-.1289.26465-.19043.398-.041.08936-.08691.17529-.125.26709-.084.20215-.15625.40869-.22216.61719-.00879.02734-.02051.05273-.02881.08008l-.001.0039q-.10693.3523-.17871.71485c-.02734.1372-.04248.27441-.062.41162-.01465.103-.03467.20556-.04492.30908-.01514.15381-.019.30664-.02491.45947-.0039.09033-.01171.18018-.01171.27051-.00049.14551.00976.28906.01757.43359.00586.10059.00733.20118.01709.30176.01221.127.03369.252.05225.37744.01758.11817.03174.23633.05518.354.021.10693.05078.21191.07666.31787.03222.13232.06152.26513.10156.39648.02881.09522.06543.1875.09814.28174.04737.13623.0918.273.14746.40771.04346.10547.0962.20655.14453.31006.05469.1167.1045.23536.166.3501q.17358.32666.37793.63526l.00146.00244,31.583,47.4331c.08155.13086.166.25879.25586.38428l13.40528,20.13281-21.63965,2.80469a7.49846,7.49846,0,0,0-5.52637,3.67969l-10.93359,18.88379L301.7373,176.30683c-.01171-.0166-.02246-.03369-.03369-.05029l-36.69287-55.10742,5.43115-8.15674a39.09912,39.09912,0,0,0,11.645-7.25928ZM232,54.7707a24,24,0,1,1,48,0v22.001A24.03633,24.03633,0,0,1,264.42188,99.2414a7.53551,7.53551,0,0,0-2.08008.67237A23.98751,23.98751,0,0,1,232,76.77168ZM134.21777,22.51a7.50022,7.50022,0,0,1,9.68164-7.17578L220.51123,38.6291A38.75562,38.75562,0,0,0,217,54.7707v3.5H184.74805a7.5,7.5,0,1,0,0,15H217v3.501a38.7582,38.7582,0,0,0,3.51172,16.14209l-32.18848,9.78711-.00928.00293L143.89941,116.2082a7.50022,7.50022,0,0,1-9.68164-7.17578ZM22.5,150.00019a7.5082,7.5082,0,0,1-7.5-7.5V96.99043a7.5082,7.5082,0,0,1,7.5-7.5h96.71777v19.542a22.53642,22.53642,0,0,0,22.4336,22.51855,22.71634,22.71634,0,0,0,6.61133-.99121l24.38574-7.41455-17.88086,26.855Zm186.50049,347H57a22.52586,22.52586,0,0,1-22.5-22.5v-309.5H144.77979L132.31738,183.717a7.49959,7.49959,0,0,0,5.2793,11.59375l29.93359,3.87988,15.124,26.12207a7.49752,7.49752,0,0,0,6.25586,3.73828c.07812.00293.15625.00391.23535.00391a7.50109,7.50109,0,0,0,6.24219-3.34375l13.62939-20.46924Zm1.28027-320.7207-20.69092,31.0752L178.65625,188.4709a7.49846,7.49846,0,0,0-5.52637-3.67969l-21.63965-2.80469,13.50049-20.27588c.00928-.01318.01807-.02734.02735-.041l30.22558-45.39453,34.66992-10.54151a38.87533,38.87533,0,0,0,20.89112,9.68555l-.51856.77881a7.44369,7.44369,0,0,0-1.03076,1.54785l-38.93945,58.48144ZM477.5,474.50019a22.52586,22.52586,0,0,1-22.5,22.5H303V442.93965a7.5,7.5,0,0,0-15,0v54.06054H224.00049l.01806-314.28808,31.981-48.03028L288,182.74043V412.93965a7.5,7.5,0,1,0,15,0V205.26777l13.6123,20.44336a7.50109,7.50109,0,0,0,6.24219,3.34375c.07813,0,.15723-.001.23633-.00391a7.49937,7.49937,0,0,0,6.25488-3.73828l15.124-26.12207,29.93359-3.87988a7.49959,7.49959,0,0,0,5.2793-11.59375l-12.46241-18.7168H477.5Zm19.5-332a7.5082,7.5082,0,0,1-7.5,7.5H357.23291l-17.88135-26.85547,24.38574,7.415a22.7212,22.7212,0,0,0,6.61133.99121,22.53642,22.53642,0,0,0,22.4336-22.51855v-19.542H489.5a7.5082,7.5082,0,0,1,7.5,7.5Z"/></svg>